<mxfile host="app.diagrams.net" modified="2023-04-05T18:24:29.682Z" agent="Mozilla/5.0 (Windows NT 10.0; Win64; x64; rv:109.0) Gecko/20100101 Firefox/112.0" etag="M7yvwHqd42frmHAF68EI" version="21.1.1" type="github">
  <diagram name="Page-1" id="SIsHhixQaX-fo1BHJjEw">
    <mxGraphModel dx="1584" dy="2266" grid="1" gridSize="10" guides="1" tooltips="1" connect="1" arrows="1" fold="1" page="1" pageScale="1" pageWidth="1100" pageHeight="1700" math="0" shadow="0">
      <root>
        <mxCell id="0" />
        <mxCell id="1" parent="0" />
        <mxCell id="AYTZR1lhjY6G7xEo_xFQ-102" style="edgeStyle=orthogonalEdgeStyle;rounded=0;orthogonalLoop=1;jettySize=auto;html=1;entryX=0.127;entryY=0.005;entryDx=0;entryDy=0;entryPerimeter=0;exitX=0.5;exitY=1;exitDx=0;exitDy=0;exitPerimeter=0;" edge="1" parent="1" source="AYTZR1lhjY6G7xEo_xFQ-56" target="AYTZR1lhjY6G7xEo_xFQ-86">
          <mxGeometry relative="1" as="geometry">
            <mxPoint x="575" y="895" as="sourcePoint" />
          </mxGeometry>
        </mxCell>
        <mxCell id="AYTZR1lhjY6G7xEo_xFQ-56" value="&lt;div&gt;On land&lt;/div&gt;" style="shape=folder;align=center;verticalAlign=middle;fontStyle=0;tabWidth=100;tabHeight=30;tabPosition=left;html=1;boundedLbl=1;labelInHeader=1;rounded=1;absoluteArcSize=1;arcSize=10;whiteSpace=wrap;" vertex="1" parent="1">
          <mxGeometry x="355" y="660" width="450" height="190" as="geometry" />
        </mxCell>
        <mxCell id="AYTZR1lhjY6G7xEo_xFQ-3" style="edgeStyle=orthogonalEdgeStyle;rounded=0;orthogonalLoop=1;jettySize=auto;html=1;exitX=0.5;exitY=1;exitDx=0;exitDy=0;entryX=0.5;entryY=0;entryDx=0;entryDy=0;verticalAlign=middle;align=center;" edge="1" parent="1" source="AYTZR1lhjY6G7xEo_xFQ-20" target="AYTZR1lhjY6G7xEo_xFQ-21">
          <mxGeometry relative="1" as="geometry">
            <mxPoint x="270" y="260" as="targetPoint" />
            <mxPoint x="220" y="259.6" as="sourcePoint" />
            <Array as="points" />
          </mxGeometry>
        </mxCell>
        <mxCell id="AYTZR1lhjY6G7xEo_xFQ-20" value="" style="shape=ellipse;html=1;fillColor=strokeColor;fontSize=18;fontColor=#ffffff;verticalAlign=middle;align=center;" vertex="1" parent="1">
          <mxGeometry x="560" y="240" width="40" height="40" as="geometry" />
        </mxCell>
        <mxCell id="AYTZR1lhjY6G7xEo_xFQ-38" style="edgeStyle=orthogonalEdgeStyle;rounded=0;orthogonalLoop=1;jettySize=auto;html=1;exitX=0.5;exitY=1;exitDx=0;exitDy=0;entryX=0.5;entryY=0;entryDx=0;entryDy=0;verticalAlign=middle;align=center;" edge="1" parent="1" source="AYTZR1lhjY6G7xEo_xFQ-21" target="AYTZR1lhjY6G7xEo_xFQ-27">
          <mxGeometry relative="1" as="geometry" />
        </mxCell>
        <mxCell id="AYTZR1lhjY6G7xEo_xFQ-21" value="Main Menu" style="html=1;align=center;verticalAlign=middle;rounded=1;absoluteArcSize=1;arcSize=10;dashed=0;whiteSpace=wrap;" vertex="1" parent="1">
          <mxGeometry x="510" y="370" width="140" height="40" as="geometry" />
        </mxCell>
        <mxCell id="AYTZR1lhjY6G7xEo_xFQ-22" value="" style="ellipse;html=1;shape=endState;fillColor=#000000;strokeColor=#ff0000;verticalAlign=middle;align=center;" vertex="1" parent="1">
          <mxGeometry x="545" y="1280" width="40" height="40" as="geometry" />
        </mxCell>
        <mxCell id="AYTZR1lhjY6G7xEo_xFQ-32" style="edgeStyle=orthogonalEdgeStyle;rounded=0;orthogonalLoop=1;jettySize=auto;html=1;entryX=0;entryY=0;entryDx=50;entryDy=0;verticalAlign=middle;align=center;entryPerimeter=0;" edge="1" parent="1" source="AYTZR1lhjY6G7xEo_xFQ-27" target="AYTZR1lhjY6G7xEo_xFQ-56">
          <mxGeometry relative="1" as="geometry">
            <mxPoint x="580" y="670" as="targetPoint" />
          </mxGeometry>
        </mxCell>
        <mxCell id="AYTZR1lhjY6G7xEo_xFQ-27" value="GamePlay" style="html=1;align=center;verticalAlign=middle;rounded=1;absoluteArcSize=1;arcSize=10;dashed=0;whiteSpace=wrap;" vertex="1" parent="1">
          <mxGeometry x="510" y="570" width="140" height="40" as="geometry" />
        </mxCell>
        <mxCell id="AYTZR1lhjY6G7xEo_xFQ-28" value="Start Game" style="dashed=0;html=1;rounded=1;fillColor=#DFE1E6;strokeColor=#DFE1E6;fontSize=12;align=center;fontStyle=1;strokeWidth=2;fontColor=#42526E;verticalAlign=middle;" vertex="1" parent="1">
          <mxGeometry x="515" y="480" width="130" height="20" as="geometry" />
        </mxCell>
        <mxCell id="AYTZR1lhjY6G7xEo_xFQ-39" value="" style="endArrow=classic;html=1;rounded=0;exitX=0;exitY=0.5;exitDx=0;exitDy=0;entryX=0;entryY=0.5;entryDx=0;entryDy=0;verticalAlign=middle;align=center;" edge="1" parent="1" source="AYTZR1lhjY6G7xEo_xFQ-25" target="AYTZR1lhjY6G7xEo_xFQ-22">
          <mxGeometry width="50" height="50" relative="1" as="geometry">
            <mxPoint x="380" y="510" as="sourcePoint" />
            <mxPoint x="270" y="390" as="targetPoint" />
            <Array as="points">
              <mxPoint x="230" y="390" />
              <mxPoint x="230" y="1300" />
            </Array>
          </mxGeometry>
        </mxCell>
        <mxCell id="AYTZR1lhjY6G7xEo_xFQ-40" value="" style="endArrow=classic;html=1;rounded=0;exitX=0;exitY=0.5;exitDx=0;exitDy=0;entryX=0;entryY=0.5;entryDx=0;entryDy=0;verticalAlign=middle;align=center;" edge="1" parent="1" source="AYTZR1lhjY6G7xEo_xFQ-21" target="AYTZR1lhjY6G7xEo_xFQ-25">
          <mxGeometry width="50" height="50" relative="1" as="geometry">
            <mxPoint x="510" y="390" as="sourcePoint" />
            <mxPoint x="560" y="1200" as="targetPoint" />
            <Array as="points" />
          </mxGeometry>
        </mxCell>
        <mxCell id="AYTZR1lhjY6G7xEo_xFQ-25" value="Exit button pressed" style="dashed=0;html=1;rounded=1;fillColor=#DFE1E6;strokeColor=#DFE1E6;fontSize=12;align=center;fontStyle=1;strokeWidth=2;fontColor=#42526E;verticalAlign=middle;" vertex="1" parent="1">
          <mxGeometry x="270" y="380" width="130" height="20" as="geometry" />
        </mxCell>
        <mxCell id="AYTZR1lhjY6G7xEo_xFQ-41" value="" style="endArrow=none;html=1;rounded=0;entryX=0;entryY=0.5;entryDx=0;entryDy=0;verticalAlign=middle;align=center;" edge="1" parent="1" target="AYTZR1lhjY6G7xEo_xFQ-27">
          <mxGeometry width="50" height="50" relative="1" as="geometry">
            <mxPoint x="230" y="590" as="sourcePoint" />
            <mxPoint x="550" y="770" as="targetPoint" />
          </mxGeometry>
        </mxCell>
        <mxCell id="AYTZR1lhjY6G7xEo_xFQ-53" style="edgeStyle=orthogonalEdgeStyle;rounded=0;orthogonalLoop=1;jettySize=auto;html=1;entryX=1;entryY=0.5;entryDx=0;entryDy=0;" edge="1" parent="1" source="AYTZR1lhjY6G7xEo_xFQ-42" target="AYTZR1lhjY6G7xEo_xFQ-45">
          <mxGeometry relative="1" as="geometry" />
        </mxCell>
        <mxCell id="AYTZR1lhjY6G7xEo_xFQ-57" style="edgeStyle=orthogonalEdgeStyle;rounded=0;orthogonalLoop=1;jettySize=auto;html=1;exitX=1;exitY=0.5;exitDx=0;exitDy=0;" edge="1" parent="1" source="AYTZR1lhjY6G7xEo_xFQ-42" target="AYTZR1lhjY6G7xEo_xFQ-46">
          <mxGeometry relative="1" as="geometry" />
        </mxCell>
        <mxCell id="AYTZR1lhjY6G7xEo_xFQ-42" value="&lt;div&gt;walk&lt;/div&gt;&lt;div&gt;&lt;br&gt;&lt;/div&gt;" style="html=1;align=center;verticalAlign=middle;rounded=1;absoluteArcSize=1;arcSize=10;dashed=0;whiteSpace=wrap;" vertex="1" parent="1">
          <mxGeometry x="510" y="790" width="130" height="30" as="geometry" />
        </mxCell>
        <mxCell id="AYTZR1lhjY6G7xEo_xFQ-64" style="edgeStyle=orthogonalEdgeStyle;rounded=0;orthogonalLoop=1;jettySize=auto;html=1;entryX=0;entryY=0;entryDx=0;entryDy=0;" edge="1" parent="1" target="AYTZR1lhjY6G7xEo_xFQ-42">
          <mxGeometry relative="1" as="geometry">
            <mxPoint x="410" y="760" as="sourcePoint" />
            <Array as="points">
              <mxPoint x="410" y="770" />
              <mxPoint x="510" y="770" />
            </Array>
          </mxGeometry>
        </mxCell>
        <mxCell id="AYTZR1lhjY6G7xEo_xFQ-65" style="edgeStyle=orthogonalEdgeStyle;rounded=0;orthogonalLoop=1;jettySize=auto;html=1;entryX=0;entryY=0.5;entryDx=0;entryDy=0;" edge="1" parent="1" source="AYTZR1lhjY6G7xEo_xFQ-45" target="AYTZR1lhjY6G7xEo_xFQ-60">
          <mxGeometry relative="1" as="geometry">
            <Array as="points">
              <mxPoint x="410" y="725" />
            </Array>
          </mxGeometry>
        </mxCell>
        <mxCell id="AYTZR1lhjY6G7xEo_xFQ-45" value="Run" style="html=1;align=center;verticalAlign=middle;rounded=1;absoluteArcSize=1;arcSize=10;dashed=0;whiteSpace=wrap;" vertex="1" parent="1">
          <mxGeometry x="370" y="792.5" width="80" height="25" as="geometry" />
        </mxCell>
        <mxCell id="AYTZR1lhjY6G7xEo_xFQ-58" style="edgeStyle=orthogonalEdgeStyle;rounded=0;orthogonalLoop=1;jettySize=auto;html=1;entryX=1;entryY=0.5;entryDx=0;entryDy=0;" edge="1" parent="1" source="AYTZR1lhjY6G7xEo_xFQ-46" target="AYTZR1lhjY6G7xEo_xFQ-60">
          <mxGeometry relative="1" as="geometry">
            <Array as="points">
              <mxPoint x="750" y="725" />
            </Array>
          </mxGeometry>
        </mxCell>
        <mxCell id="AYTZR1lhjY6G7xEo_xFQ-46" value="&lt;div&gt;Jump&lt;/div&gt;" style="html=1;align=center;verticalAlign=middle;rounded=1;absoluteArcSize=1;arcSize=10;dashed=0;whiteSpace=wrap;" vertex="1" parent="1">
          <mxGeometry x="710" y="790" width="80" height="30" as="geometry" />
        </mxCell>
        <mxCell id="AYTZR1lhjY6G7xEo_xFQ-59" value="&lt;div&gt;Jump&amp;nbsp; key Released&lt;/div&gt;" style="dashed=0;html=1;rounded=1;fillColor=#DFE1E6;strokeColor=#DFE1E6;fontSize=12;align=center;fontStyle=1;strokeWidth=2;fontColor=#42526E;verticalAlign=middle;" vertex="1" parent="1">
          <mxGeometry x="670" y="700" width="110" height="15" as="geometry" />
        </mxCell>
        <mxCell id="AYTZR1lhjY6G7xEo_xFQ-61" style="edgeStyle=orthogonalEdgeStyle;rounded=0;orthogonalLoop=1;jettySize=auto;html=1;exitX=0.5;exitY=1;exitDx=0;exitDy=0;entryX=0.5;entryY=0;entryDx=0;entryDy=0;" edge="1" parent="1" source="AYTZR1lhjY6G7xEo_xFQ-60" target="AYTZR1lhjY6G7xEo_xFQ-42">
          <mxGeometry relative="1" as="geometry" />
        </mxCell>
        <mxCell id="AYTZR1lhjY6G7xEo_xFQ-60" value="idle" style="html=1;align=center;verticalAlign=middle;rounded=1;absoluteArcSize=1;arcSize=10;dashed=0;whiteSpace=wrap;" vertex="1" parent="1">
          <mxGeometry x="510" y="710" width="130" height="30" as="geometry" />
        </mxCell>
        <mxCell id="AYTZR1lhjY6G7xEo_xFQ-63" value="Jump&amp;nbsp; key press " style="dashed=0;html=1;rounded=1;fillColor=#DFE1E6;strokeColor=#DFE1E6;fontSize=12;align=center;fontStyle=1;strokeWidth=2;fontColor=#42526E;verticalAlign=middle;" vertex="1" parent="1">
          <mxGeometry x="640" y="823.75" width="100" height="10" as="geometry" />
        </mxCell>
        <mxCell id="AYTZR1lhjY6G7xEo_xFQ-67" value="Run Key pressed" style="dashed=0;html=1;rounded=1;fillColor=#DFE1E6;strokeColor=#DFE1E6;fontSize=12;align=center;fontStyle=1;strokeWidth=2;fontColor=#42526E;verticalAlign=middle;" vertex="1" parent="1">
          <mxGeometry x="440" y="820" width="100" height="17.5" as="geometry" />
        </mxCell>
        <mxCell id="AYTZR1lhjY6G7xEo_xFQ-54" value="run key relased while walking" style="dashed=0;html=1;rounded=1;fillColor=#DFE1E6;strokeColor=#DFE1E6;fontSize=8;align=center;fontStyle=1;strokeWidth=2;fontColor=#42526E;verticalAlign=middle;" vertex="1" parent="1">
          <mxGeometry x="420" y="760" width="120" height="10" as="geometry" />
        </mxCell>
        <mxCell id="AYTZR1lhjY6G7xEo_xFQ-69" value="No key are pressed" style="dashed=0;html=1;rounded=1;fillColor=#DFE1E6;strokeColor=#DFE1E6;fontSize=8;align=center;fontStyle=1;strokeWidth=2;fontColor=#42526E;verticalAlign=middle;" vertex="1" parent="1">
          <mxGeometry x="380" y="710" width="120" height="10" as="geometry" />
        </mxCell>
        <mxCell id="AYTZR1lhjY6G7xEo_xFQ-108" style="edgeStyle=orthogonalEdgeStyle;rounded=0;orthogonalLoop=1;jettySize=auto;html=1;entryX=1;entryY=0.547;entryDx=0;entryDy=0;entryPerimeter=0;" edge="1" parent="1" source="AYTZR1lhjY6G7xEo_xFQ-86" target="AYTZR1lhjY6G7xEo_xFQ-56">
          <mxGeometry relative="1" as="geometry">
            <Array as="points">
              <mxPoint x="825" y="1000" />
              <mxPoint x="825" y="764" />
            </Array>
          </mxGeometry>
        </mxCell>
        <mxCell id="AYTZR1lhjY6G7xEo_xFQ-115" style="edgeStyle=orthogonalEdgeStyle;rounded=0;orthogonalLoop=1;jettySize=auto;html=1;entryX=0.586;entryY=-0.025;entryDx=0;entryDy=0;entryPerimeter=0;" edge="1" parent="1" source="AYTZR1lhjY6G7xEo_xFQ-86" target="AYTZR1lhjY6G7xEo_xFQ-114">
          <mxGeometry relative="1" as="geometry" />
        </mxCell>
        <mxCell id="AYTZR1lhjY6G7xEo_xFQ-86" value="In Water" style="shape=folder;align=center;verticalAlign=middle;fontStyle=0;tabWidth=100;tabHeight=30;tabPosition=left;html=1;boundedLbl=1;labelInHeader=1;rounded=1;absoluteArcSize=1;arcSize=10;whiteSpace=wrap;" vertex="1" parent="1">
          <mxGeometry x="350" y="900" width="450" height="190" as="geometry" />
        </mxCell>
        <mxCell id="AYTZR1lhjY6G7xEo_xFQ-87" style="edgeStyle=orthogonalEdgeStyle;rounded=0;orthogonalLoop=1;jettySize=auto;html=1;entryX=1;entryY=0.5;entryDx=0;entryDy=0;" edge="1" parent="1" source="AYTZR1lhjY6G7xEo_xFQ-89" target="AYTZR1lhjY6G7xEo_xFQ-92">
          <mxGeometry relative="1" as="geometry" />
        </mxCell>
        <mxCell id="AYTZR1lhjY6G7xEo_xFQ-88" style="edgeStyle=orthogonalEdgeStyle;rounded=0;orthogonalLoop=1;jettySize=auto;html=1;exitX=1;exitY=0.5;exitDx=0;exitDy=0;" edge="1" parent="1" source="AYTZR1lhjY6G7xEo_xFQ-89" target="AYTZR1lhjY6G7xEo_xFQ-94">
          <mxGeometry relative="1" as="geometry" />
        </mxCell>
        <mxCell id="AYTZR1lhjY6G7xEo_xFQ-89" value="swim" style="html=1;align=center;verticalAlign=middle;rounded=1;absoluteArcSize=1;arcSize=10;dashed=0;whiteSpace=wrap;" vertex="1" parent="1">
          <mxGeometry x="505" y="1030" width="130" height="30" as="geometry" />
        </mxCell>
        <mxCell id="AYTZR1lhjY6G7xEo_xFQ-90" style="edgeStyle=orthogonalEdgeStyle;rounded=0;orthogonalLoop=1;jettySize=auto;html=1;entryX=0;entryY=0;entryDx=0;entryDy=0;" edge="1" parent="1" target="AYTZR1lhjY6G7xEo_xFQ-89">
          <mxGeometry relative="1" as="geometry">
            <mxPoint x="405" y="1000" as="sourcePoint" />
            <Array as="points">
              <mxPoint x="405" y="1010" />
              <mxPoint x="505" y="1010" />
            </Array>
          </mxGeometry>
        </mxCell>
        <mxCell id="AYTZR1lhjY6G7xEo_xFQ-91" style="edgeStyle=orthogonalEdgeStyle;rounded=0;orthogonalLoop=1;jettySize=auto;html=1;entryX=0;entryY=0.5;entryDx=0;entryDy=0;" edge="1" parent="1" source="AYTZR1lhjY6G7xEo_xFQ-92" target="AYTZR1lhjY6G7xEo_xFQ-97">
          <mxGeometry relative="1" as="geometry">
            <Array as="points">
              <mxPoint x="405" y="965" />
            </Array>
          </mxGeometry>
        </mxCell>
        <mxCell id="AYTZR1lhjY6G7xEo_xFQ-92" value="dive" style="html=1;align=center;verticalAlign=middle;rounded=1;absoluteArcSize=1;arcSize=10;dashed=0;whiteSpace=wrap;" vertex="1" parent="1">
          <mxGeometry x="365" y="1032.5" width="80" height="25" as="geometry" />
        </mxCell>
        <mxCell id="AYTZR1lhjY6G7xEo_xFQ-93" style="edgeStyle=orthogonalEdgeStyle;rounded=0;orthogonalLoop=1;jettySize=auto;html=1;entryX=1;entryY=0.5;entryDx=0;entryDy=0;" edge="1" parent="1" source="AYTZR1lhjY6G7xEo_xFQ-94" target="AYTZR1lhjY6G7xEo_xFQ-97">
          <mxGeometry relative="1" as="geometry">
            <Array as="points">
              <mxPoint x="745" y="965" />
            </Array>
          </mxGeometry>
        </mxCell>
        <mxCell id="AYTZR1lhjY6G7xEo_xFQ-94" value="surface" style="html=1;align=center;verticalAlign=middle;rounded=1;absoluteArcSize=1;arcSize=10;dashed=0;whiteSpace=wrap;" vertex="1" parent="1">
          <mxGeometry x="705" y="1030" width="80" height="30" as="geometry" />
        </mxCell>
        <mxCell id="AYTZR1lhjY6G7xEo_xFQ-95" value="no key press" style="dashed=0;html=1;rounded=1;fillColor=#DFE1E6;strokeColor=#DFE1E6;fontSize=12;align=center;fontStyle=1;strokeWidth=2;fontColor=#42526E;verticalAlign=middle;" vertex="1" parent="1">
          <mxGeometry x="665" y="940" width="110" height="15" as="geometry" />
        </mxCell>
        <mxCell id="AYTZR1lhjY6G7xEo_xFQ-96" style="edgeStyle=orthogonalEdgeStyle;rounded=0;orthogonalLoop=1;jettySize=auto;html=1;exitX=0.5;exitY=1;exitDx=0;exitDy=0;entryX=0.5;entryY=0;entryDx=0;entryDy=0;" edge="1" parent="1" source="AYTZR1lhjY6G7xEo_xFQ-97" target="AYTZR1lhjY6G7xEo_xFQ-89">
          <mxGeometry relative="1" as="geometry" />
        </mxCell>
        <mxCell id="AYTZR1lhjY6G7xEo_xFQ-97" value="idle" style="html=1;align=center;verticalAlign=middle;rounded=1;absoluteArcSize=1;arcSize=10;dashed=0;whiteSpace=wrap;" vertex="1" parent="1">
          <mxGeometry x="505" y="950" width="130" height="30" as="geometry" />
        </mxCell>
        <mxCell id="AYTZR1lhjY6G7xEo_xFQ-98" value="surface key press " style="dashed=0;html=1;rounded=1;fillColor=#DFE1E6;strokeColor=#DFE1E6;fontSize=12;align=center;fontStyle=1;strokeWidth=2;fontColor=#42526E;verticalAlign=middle;" vertex="1" parent="1">
          <mxGeometry x="640" y="1067.5" width="100" height="10" as="geometry" />
        </mxCell>
        <mxCell id="AYTZR1lhjY6G7xEo_xFQ-99" value="dive Key pressed" style="dashed=0;html=1;rounded=1;fillColor=#DFE1E6;strokeColor=#DFE1E6;fontSize=12;align=center;fontStyle=1;strokeWidth=2;fontColor=#42526E;verticalAlign=middle;" vertex="1" parent="1">
          <mxGeometry x="435" y="1060" width="100" height="17.5" as="geometry" />
        </mxCell>
        <mxCell id="AYTZR1lhjY6G7xEo_xFQ-100" value="dive key released while swiming" style="dashed=0;html=1;rounded=1;fillColor=#DFE1E6;strokeColor=#DFE1E6;fontSize=8;align=center;fontStyle=1;strokeWidth=2;fontColor=#42526E;verticalAlign=middle;" vertex="1" parent="1">
          <mxGeometry x="435" y="1000" width="120" height="10" as="geometry" />
        </mxCell>
        <mxCell id="AYTZR1lhjY6G7xEo_xFQ-101" value="&lt;font style=&quot;font-size: 11px;&quot;&gt;No key press&lt;br&gt;&lt;/font&gt;" style="dashed=0;html=1;rounded=1;fillColor=#DFE1E6;strokeColor=#DFE1E6;fontSize=8;align=center;fontStyle=1;strokeWidth=2;fontColor=#42526E;verticalAlign=middle;" vertex="1" parent="1">
          <mxGeometry x="380" y="942.5" width="120" height="10" as="geometry" />
        </mxCell>
        <mxCell id="AYTZR1lhjY6G7xEo_xFQ-103" style="edgeStyle=orthogonalEdgeStyle;rounded=0;orthogonalLoop=1;jettySize=auto;html=1;entryX=0.75;entryY=0;entryDx=0;entryDy=0;exitX=0.5;exitY=0;exitDx=0;exitDy=0;" edge="1" parent="1" source="AYTZR1lhjY6G7xEo_xFQ-94" target="AYTZR1lhjY6G7xEo_xFQ-89">
          <mxGeometry relative="1" as="geometry">
            <mxPoint x="665" y="1140" as="sourcePoint" />
            <Array as="points">
              <mxPoint x="745" y="1000" />
              <mxPoint x="602" y="1000" />
            </Array>
            <mxPoint x="765" y="1170" as="targetPoint" />
          </mxGeometry>
        </mxCell>
        <mxCell id="AYTZR1lhjY6G7xEo_xFQ-104" value="&lt;font style=&quot;font-size: 9px;&quot;&gt;surface key relesed while swiming&lt;br&gt;&lt;/font&gt;" style="dashed=0;html=1;rounded=1;fillColor=#DFE1E6;strokeColor=#DFE1E6;fontSize=12;align=center;fontStyle=1;strokeWidth=2;fontColor=#42526E;verticalAlign=middle;" vertex="1" parent="1">
          <mxGeometry x="580" y="990" width="160" height="10" as="geometry" />
        </mxCell>
        <mxCell id="AYTZR1lhjY6G7xEo_xFQ-105" style="edgeStyle=orthogonalEdgeStyle;rounded=0;orthogonalLoop=1;jettySize=auto;html=1;entryX=0.75;entryY=0;entryDx=0;entryDy=0;exitX=0.5;exitY=0;exitDx=0;exitDy=0;" edge="1" parent="1" source="AYTZR1lhjY6G7xEo_xFQ-106">
          <mxGeometry relative="1" as="geometry">
            <mxPoint x="743" y="789.97" as="sourcePoint" />
            <Array as="points">
              <mxPoint x="600" y="759.97" />
            </Array>
            <mxPoint x="601" y="789.97" as="targetPoint" />
          </mxGeometry>
        </mxCell>
        <mxCell id="AYTZR1lhjY6G7xEo_xFQ-107" value="" style="edgeStyle=orthogonalEdgeStyle;rounded=0;orthogonalLoop=1;jettySize=auto;html=1;entryX=0.75;entryY=0;entryDx=0;entryDy=0;exitX=0.5;exitY=0;exitDx=0;exitDy=0;" edge="1" parent="1" target="AYTZR1lhjY6G7xEo_xFQ-106">
          <mxGeometry relative="1" as="geometry">
            <mxPoint x="743" y="789.97" as="sourcePoint" />
            <Array as="points">
              <mxPoint x="743" y="759.97" />
            </Array>
            <mxPoint x="601" y="789.97" as="targetPoint" />
          </mxGeometry>
        </mxCell>
        <mxCell id="AYTZR1lhjY6G7xEo_xFQ-106" value="&lt;font style=&quot;font-size: 10px;&quot;&gt;jump key relased while waking&lt;br&gt;&lt;/font&gt;" style="dashed=0;html=1;rounded=1;fillColor=#DFE1E6;strokeColor=#DFE1E6;fontSize=12;align=center;fontStyle=1;strokeWidth=2;fontColor=#42526E;verticalAlign=middle;" vertex="1" parent="1">
          <mxGeometry x="580" y="750" width="160" height="10" as="geometry" />
        </mxCell>
        <mxCell id="AYTZR1lhjY6G7xEo_xFQ-109" value="&lt;div&gt;Exit water&lt;/div&gt;" style="dashed=0;html=1;rounded=1;fillColor=#DFE1E6;strokeColor=#DFE1E6;fontSize=12;align=center;fontStyle=1;strokeWidth=2;fontColor=#42526E;verticalAlign=middle;" vertex="1" parent="1">
          <mxGeometry x="775" y="885" width="110" height="15" as="geometry" />
        </mxCell>
        <mxCell id="AYTZR1lhjY6G7xEo_xFQ-113" value="Enter water" style="dashed=0;html=1;rounded=1;fillColor=#DFE1E6;strokeColor=#DFE1E6;fontSize=12;align=center;fontStyle=1;strokeWidth=2;fontColor=#42526E;verticalAlign=middle;" vertex="1" parent="1">
          <mxGeometry x="470" y="870" width="110" height="15" as="geometry" />
        </mxCell>
        <mxCell id="AYTZR1lhjY6G7xEo_xFQ-117" style="edgeStyle=orthogonalEdgeStyle;rounded=0;orthogonalLoop=1;jettySize=auto;html=1;" edge="1" parent="1" source="AYTZR1lhjY6G7xEo_xFQ-114" target="AYTZR1lhjY6G7xEo_xFQ-22">
          <mxGeometry relative="1" as="geometry" />
        </mxCell>
        <mxCell id="AYTZR1lhjY6G7xEo_xFQ-119" style="edgeStyle=orthogonalEdgeStyle;rounded=0;orthogonalLoop=1;jettySize=auto;html=1;entryX=1;entryY=0.5;entryDx=0;entryDy=0;" edge="1" parent="1" source="AYTZR1lhjY6G7xEo_xFQ-114" target="AYTZR1lhjY6G7xEo_xFQ-27">
          <mxGeometry relative="1" as="geometry">
            <Array as="points">
              <mxPoint x="910" y="1190" />
              <mxPoint x="910" y="590" />
            </Array>
          </mxGeometry>
        </mxCell>
        <mxCell id="AYTZR1lhjY6G7xEo_xFQ-114" value="Main Menu" style="html=1;align=center;verticalAlign=middle;rounded=1;absoluteArcSize=1;arcSize=10;dashed=0;whiteSpace=wrap;" vertex="1" parent="1">
          <mxGeometry x="495" y="1170" width="140" height="40" as="geometry" />
        </mxCell>
        <mxCell id="AYTZR1lhjY6G7xEo_xFQ-116" value="Level Complete" style="dashed=0;html=1;rounded=1;fillColor=#DFE1E6;strokeColor=#DFE1E6;fontSize=12;align=center;fontStyle=1;strokeWidth=2;fontColor=#42526E;verticalAlign=middle;" vertex="1" parent="1">
          <mxGeometry x="535" y="1130" width="110" height="15" as="geometry" />
        </mxCell>
        <mxCell id="AYTZR1lhjY6G7xEo_xFQ-118" value="&lt;div style=&quot;font-size: 11px;&quot;&gt;Exit Game&lt;/div&gt;&lt;div style=&quot;font-size: 11px;&quot;&gt;&lt;br style=&quot;font-size: 11px;&quot;&gt;&lt;/div&gt;" style="dashed=0;html=1;rounded=1;fillColor=#DFE1E6;strokeColor=#DFE1E6;fontSize=11;align=center;fontStyle=1;strokeWidth=2;fontColor=#42526E;verticalAlign=middle;" vertex="1" parent="1">
          <mxGeometry x="470" y="1240" width="120" height="25" as="geometry" />
        </mxCell>
        <mxCell id="AYTZR1lhjY6G7xEo_xFQ-120" value="Restart game" style="dashed=0;html=1;rounded=1;fillColor=#DFE1E6;strokeColor=#DFE1E6;fontSize=11;align=center;fontStyle=1;strokeWidth=2;fontColor=#42526E;verticalAlign=middle;" vertex="1" parent="1">
          <mxGeometry x="885" y="935" width="120" height="25" as="geometry" />
        </mxCell>
        <mxCell id="AYTZR1lhjY6G7xEo_xFQ-121" value="Exit button pressed" style="dashed=0;html=1;rounded=1;fillColor=#DFE1E6;strokeColor=#DFE1E6;fontSize=12;align=center;fontStyle=1;strokeWidth=2;fontColor=#42526E;verticalAlign=middle;" vertex="1" parent="1">
          <mxGeometry x="315" y="570" width="130" height="20" as="geometry" />
        </mxCell>
      </root>
    </mxGraphModel>
  </diagram>
</mxfile>
